<svg width="131" height="80" viewBox="0 0 131 80" fill="none" xmlns="http://www.w3.org/2000/svg">
<path d="M130.073 35.8794L110.921 13.8415C110.475 13.3278 109.829 13.0301 109.148 13.0301H86.1552V2.33515C86.1552 1.04498 85.1039 0 83.806 0H32.7001C31.4022 0 30.351 1.04498 30.351 2.33515C30.351 3.62532 31.4022 4.67031 32.7001 4.67031H81.4576V61.7766H64.3316C62.9926 54.8412 56.8672 49.5812 49.5083 49.5812C42.1494 49.5812 36.0181 54.8411 34.685 61.7766H17.6778C16.3799 61.7766 15.3286 62.8216 15.3286 64.1117C15.3286 65.4019 16.3799 66.4469 17.6778 66.4469H34.5858C35.5137 73.8551 41.8095 79.6288 49.5148 79.6288C57.2142 79.6288 63.5158 73.8551 64.4437 66.4469H81.7096C82.8489 73.6158 89.0566 79.1326 96.5856 79.1326C104.115 79.1326 110.322 73.6158 111.462 66.4469H128.311C129.609 66.4469 130.66 65.4019 130.66 64.1117V37.4036C130.648 36.8431 130.442 36.2997 130.073 35.8794ZM49.5017 74.9576C43.758 74.9576 39.089 70.3164 39.089 64.607C39.089 58.8975 43.7638 54.2564 49.5017 54.2564C55.2454 54.2564 59.9144 58.8975 59.9144 64.607C59.9203 70.3164 55.2454 74.9576 49.5017 74.9576ZM96.5677 74.4672C90.824 74.4672 86.155 69.826 86.155 64.1166C86.155 58.4072 90.824 53.766 96.5677 53.766C102.311 53.766 106.98 58.4072 106.98 64.1166C106.986 69.826 102.311 74.4672 96.5677 74.4672ZM125.95 61.7756H111.45C110.31 54.6066 104.103 49.0899 96.5737 49.0899C92.5332 49.0899 88.8743 50.6952 86.161 53.2756V17.6931H108.079L125.956 38.2664L125.95 61.7756Z" fill="#EC172A"/>
<path d="M104.984 20.8582H91.9405C90.6425 20.8582 89.5913 21.9032 89.5913 23.1934V34.2503C89.5913 35.5288 90.6249 36.568 91.9111 36.5854C91.9111 36.5854 114.815 36.8773 114.845 36.8773C116.771 36.8773 117.922 34.513 116.619 33.0185L106.758 21.6696C106.318 21.1559 105.671 20.8582 104.984 20.8582ZM94.2896 31.9444V25.5286H103.909L109.653 32.1371L94.2896 31.9444Z" fill="#EC172A"/>
<path d="M14.2306 20.3456H39.8828C41.1807 20.3456 42.2319 19.3006 42.2319 18.0104C42.2319 16.7203 41.1807 15.6753 39.8828 15.6753H14.2306C12.9327 15.6753 11.8814 16.7203 11.8814 18.0104C11.8814 19.3006 12.9327 20.3456 14.2306 20.3456Z" fill="#EC172A"/>
<path d="M28.0608 48.4377C28.0608 47.1475 27.0096 46.1025 25.7117 46.1025H13.6722C12.3743 46.1025 11.323 47.1475 11.323 48.4377C11.323 49.7279 12.3743 50.7728 13.6722 50.7728H25.7058C27.0096 50.7728 28.0608 49.7279 28.0608 48.4377Z" fill="#EC172A"/>
<path d="M37.9565 33.2238C37.9565 31.9337 36.9053 30.8887 35.6074 30.8887H2.34917C1.05125 30.8887 0 31.9337 0 33.2238C0 34.514 1.05125 35.559 2.34917 35.559H35.6074C36.9053 35.559 37.9565 34.514 37.9565 33.2238Z" fill="#EC172A"/>
</svg>
