<svg width="32" height="32" viewBox="0 0 32 32" fill="none" xmlns="http://www.w3.org/2000/svg">
<path d="M15.9577 0C-5.31552 0.839506 -5.32294 31.1562 15.9577 32C21.6893 32 26.9847 28.9497 29.8506 23.9993C32.7165 19.0488 32.7165 12.9512 29.8506 8.00074C26.9848 3.05026 21.6893 0 15.9577 0ZM21.5865 21.6137C21.3692 21.8305 21.0751 21.9533 20.7679 21.9533C20.4593 21.9533 20.1652 21.8305 19.9479 21.6137L15.1376 16.8179C14.9203 16.6011 14.7986 16.3064 14.7986 16V6.46196C14.8073 5.83053 15.3246 5.3219 15.9577 5.3219C16.5908 5.3219 17.1081 5.83053 17.1168 6.46196V15.5203L21.5865 19.978V19.9795C21.8039 20.1962 21.927 20.4895 21.927 20.7973C21.927 21.1036 21.8038 21.397 21.5865 21.6137Z" fill="#76D9F8"/>
</svg>
