<svg width="90" height="80" viewBox="0 0 90 80" fill="none" xmlns="http://www.w3.org/2000/svg">
<path d="M73.9552 23.629H61.6057L64.5837 11.8261C65.1699 9.50098 64.8493 7.04134 63.6856 4.94014C62.5219 2.839 60.6003 1.25143 58.3055 0.493321L58.2951 0.489063C56.2969 -0.171843 54.1355 -0.162489 52.1432 0.514614C50.151 1.19257 48.4389 2.50078 47.2709 4.23734L41.0707 13.4537L25.6694 28.7161H24.2452C23.3514 27.1737 22.064 25.891 20.5117 24.9984C18.9587 24.1049 17.1969 23.6331 15.4014 23.6289H10.2679C7.54512 23.6289 4.93327 24.7011 3.00722 26.6089C1.08205 28.5176 0 31.105 0 33.8041V69.4157C0 72.1139 1.08205 74.7021 3.00722 76.6108C4.93325 78.5186 7.54512 79.5909 10.2679 79.5909H15.4014C18.7232 79.5875 21.836 77.988 23.7526 75.3L41.0706 79.5909H69.288C72.8952 79.5909 76.3872 78.3364 79.1563 76.0461C81.9255 73.7559 83.7957 70.5747 84.4412 67.0581L89.108 41.62C89.9254 37.1673 88.7058 32.5851 85.7802 29.1111C82.8538 25.6361 78.5222 23.628 73.956 23.628L73.9552 23.629ZM15.4015 74.503H10.268C8.90661 74.5021 7.602 73.9656 6.63942 73.0117C5.67683 72.0578 5.13539 70.7648 5.13453 69.4158V33.8043C5.13539 32.4552 5.67683 31.1623 6.63942 30.2084C7.602 29.2545 8.90671 28.718 10.268 28.7162H15.4015C16.7628 28.7179 18.0674 29.2545 19.03 30.2084C19.9926 31.1623 20.5341 32.4553 20.5358 33.8043V69.4158C20.5341 70.7649 19.9926 72.0578 19.03 73.0117C18.0674 73.9656 16.7627 74.5021 15.4015 74.503ZM84.0563 40.712L79.3895 66.1501C78.9606 68.4948 77.7135 70.6154 75.8674 72.1425C74.0212 73.6697 71.6921 74.5052 69.2875 74.5043H41.7015L25.6684 70.5328V33.8049H27.7947L29.2979 32.3144L44.6993 17.052L45.0594 16.696L45.3412 16.2769L51.5414 7.05996C52.3278 5.89398 53.6256 5.16578 55.0393 5.09595C56.4522 5.02611 57.8161 5.62401 58.7151 6.70735C59.6141 7.79072 59.9433 9.23176 59.6021 10.5927L56.6241 22.3956L55.0298 28.7169H73.9541C76.9983 28.7169 79.8861 30.0557 81.837 32.3724C83.7871 34.689 84.6002 37.7441 84.0552 40.7122L84.0563 40.712Z" fill="#6EC363"/>
</svg>
