<svg width="34" height="25" viewBox="0 0 34 25" fill="none" xmlns="http://www.w3.org/2000/svg">
<path fill-rule="evenodd" clip-rule="evenodd" d="M1.58001 0.65936C2.1826 0.2328 2.90053 0 3.64278 0H30.3571C31.0993 0 31.8172 0.232812 32.4198 0.65936L17.78 13.3174C17.3292 13.708 16.6704 13.708 16.2197 13.3174L1.58001 0.65936ZM33.8513 2.68592C33.9484 3.02811 34 3.38592 34 3.75V21.25C34 22.2453 33.616 23.1984 32.9329 23.9016C32.2499 24.6047 31.324 25 30.3571 25H3.64286C2.67597 25 1.75009 24.6047 1.06706 23.9016C0.384025 23.1984 0 22.2453 0 21.25V3.75C0 3.38594 0.051606 3.02812 0.148749 2.68592L14.6565 15.2311C16.0119 16.403 17.9881 16.403 19.3434 15.2311L33.8513 2.68592Z" fill="#76D9F8"/>
</svg>
