<svg width="97" height="86" viewBox="0 0 97 86" fill="none" xmlns="http://www.w3.org/2000/svg">
<path fill-rule="evenodd" clip-rule="evenodd" d="M15.1293 5.11516C15.1293 2.56438 17.2061 0.5 19.7623 0.5H91.4401C94.0007 0.5 96.0731 2.56427 96.0731 5.11516V50.285C96.0731 52.8357 94.0009 54.9001 91.4401 54.9001H29.0548C29.4023 55.2639 29.7587 55.6277 30.1239 55.9915C34.7129 60.5627 39.1084 63.473 42.0914 65.0595C43.1078 65.603 44.4453 65.3181 45.3297 64.2005L48.7704 59.8615C50.1475 58.1215 52.6466 57.749 54.4725 59.0112L68.116 68.4211C70.4391 70.0253 71.1563 73.1283 69.7659 75.5783L66.9764 80.4915C65.7796 82.5996 63.8085 84.7648 60.9091 85.2425C53.117 86.5354 38.6636 83.4105 20.6329 65.4447C2.60226 47.4836 -0.539139 33.0904 0.75842 25.3284C1.2424 22.4357 3.41155 20.4722 5.53224 19.2801L10.46 16.5057C11.9384 15.673 13.6499 15.5985 15.1282 16.1682L15.1293 5.11516ZM18.5435 19.4342L27.0923 31.737C28.3595 33.5603 27.9855 36.0498 26.2388 37.4216L21.8873 40.8446C20.7654 41.7299 20.4794 43.0624 21.0205 44.0704C21.3857 44.7497 21.8169 45.5035 22.3273 46.3144L45.3511 26.3202L18.5428 5.66404L18.5435 19.4342ZM21.8346 3.90114L54.8548 29.3483C55.2948 29.6858 55.9063 29.6858 56.3463 29.3483L89.371 3.90114H21.8346ZM92.6586 5.66303L65.8547 26.3192L92.6586 49.5964V5.66303ZM89.6579 51.4993L63.1007 28.4409L58.4369 32.0392C56.765 33.3233 54.4375 33.3233 52.7655 32.0392L48.1017 28.4409L24.2456 49.1543C24.7955 49.9125 25.3983 50.6971 26.0539 51.4991L89.6579 51.4993ZM14.8432 20.0831C14.236 19.2109 13.0657 18.9436 12.1418 19.4651L7.21398 22.2439C5.50249 23.2037 4.36735 24.4573 4.12529 25.886C3.07813 32.1623 5.44966 45.5167 23.0492 63.0436C40.6439 80.5705 54.0464 82.9368 60.3461 81.8899C61.7848 81.6533 63.0388 80.5181 64.0067 78.8176L66.7919 73.9044C67.3154 72.984 67.0471 71.8181 66.1759 71.2177L52.5324 61.8078C52.1848 61.5667 51.7096 61.6412 51.4456 61.97L48.0093 66.309C46.2802 68.4916 43.196 69.5041 40.4813 68.0621C37.221 66.3221 32.5527 63.2191 27.7129 58.3979C26.3138 57.0042 25.0598 55.6235 23.9378 54.2912C22.6531 52.7571 21.5487 51.2801 20.6072 49.9084L20.5544 49.8382C19.5072 48.2999 18.6625 46.8886 18.0113 45.6746C16.5637 42.9748 17.5757 39.9024 19.7712 38.1755L24.1271 34.7525C24.4571 34.4939 24.5275 34.0206 24.2899 33.6743L14.8432 20.0831Z" fill="#FA961D" stroke="#FA961D"/>
</svg>
