<svg width="84" height="83" viewBox="0 0 84 83" fill="none" xmlns="http://www.w3.org/2000/svg">
<path d="M41.5127 0C18.6235 0 0 18.5208 0 41.2837C0 64.0466 18.6226 82.5673 41.5127 82.5673C64.4029 82.5673 83.0255 64.0466 83.0255 41.2837C83.0255 18.5208 64.402 0 41.5127 0ZM41.5127 77.4067C21.4844 77.4067 5.18921 61.2024 5.18921 41.2837C5.18921 21.3649 21.4844 5.16058 41.5127 5.16058C61.541 5.16058 77.8363 21.3649 77.8363 41.2837C77.8363 61.2024 61.541 77.4067 41.5127 77.4067ZM52.1594 41.7963C50.4816 40.3227 48.0088 39.233 44.6238 38.4792V27.1706C45.5093 27.3692 46.2996 27.6624 46.9835 28.0512C48.1334 28.7019 49.0759 29.5712 49.8672 30.7081C50.1354 31.094 50.5511 31.3541 51.0162 31.4298C51.4841 31.5007 51.9606 31.3881 52.3372 31.1063L53.9979 29.8672C54.7397 29.3129 54.9138 28.2753 54.3897 27.513C53.2037 25.7859 51.6639 24.3832 49.8121 23.3456C48.354 22.5283 46.6335 21.9807 44.6771 21.7102V19.0438C44.6771 18.0904 43.9 17.3176 42.9403 17.3176H41.1751C40.2154 17.3176 39.4384 18.0904 39.4384 19.0438V21.6686C36.6174 21.9807 34.2444 22.8556 32.366 24.2753C29.9673 26.0923 28.7499 28.7416 28.7499 32.1514C28.7499 35.355 29.8037 37.8644 31.8819 39.6095C33.5777 41.0349 36.0572 42.1397 39.4393 42.9701V55.4393C38.2229 55.2066 37.1643 54.815 36.2826 54.2683C34.9073 53.418 33.6623 52.2868 32.5838 50.9068C32.2966 50.5407 31.8743 50.3043 31.4111 50.2513C30.9479 50.2021 30.4819 50.3345 30.1185 50.6268L28.4579 51.968C27.7332 52.5544 27.6029 53.6062 28.1678 54.3487C29.5764 56.2045 31.3131 57.7566 33.3266 58.9654C35.0177 59.9822 37.0701 60.6292 39.4393 60.8959V63.5254C39.4393 64.4788 40.2164 65.2516 41.1761 65.2516H42.9394C43.8991 65.2516 44.6761 64.4788 44.6761 63.5254V60.8628C47.5361 60.4684 49.9157 59.4507 51.7656 57.8285C54.0511 55.8271 55.2096 53.0208 55.2096 49.4889C55.2096 46.1652 54.1824 43.5783 52.1594 41.7963ZM39.4384 37.3139C38.4721 37.0349 37.6399 36.7341 36.9522 36.4163C36.0144 35.9822 35.3458 35.4373 34.9587 34.7961C34.5554 34.1264 34.3509 33.2023 34.3509 32.0474C34.3509 30.378 34.8579 29.2146 35.9469 28.3888C36.8267 27.723 37.9975 27.2784 39.4384 27.0599V37.3139ZM47.9584 53.8531C47.1204 54.5984 46.0019 55.1215 44.6238 55.4147V44.0115C46.6049 44.5582 47.6692 45.1948 48.2351 45.6828C49.1606 46.483 49.6104 47.7618 49.6104 49.592C49.6104 51.4686 49.0692 52.8619 47.9584 53.8531Z" fill="#76D9F8"/>
</svg>
