<svg width="32" height="32" viewBox="0 0 32 32" fill="none" xmlns="http://www.w3.org/2000/svg">
<path d="M32 29.2131V2.78686C31.9993 2.04797 31.7328 1.33957 31.2589 0.817096C30.785 0.294625 30.1425 0.000764569 29.4724 0H2.52761C1.85746 0.000764569 1.21496 0.294625 0.741087 0.817096C0.267217 1.33957 0.000693446 2.04797 0 2.78686V29.2131C0.000693446 29.952 0.267217 30.6604 0.741087 31.1829C1.21496 31.7054 1.85746 31.9992 2.52761 32H29.4724C30.1425 31.9992 30.785 31.7054 31.2589 31.1829C31.7328 30.6604 31.9993 29.952 32 29.2131ZM26.0465 25.8462C26.0464 26.1725 25.9288 26.4855 25.7195 26.7163C25.5101 26.9471 25.2263 27.0768 24.9302 27.0769H18.5509C18.2548 27.0769 17.9709 26.9473 17.7615 26.7164C17.5522 26.4856 17.4346 26.1726 17.4346 25.8462C17.4346 25.5197 17.5522 25.2067 17.7615 24.9759C17.9709 24.7451 18.2548 24.6154 18.5509 24.6154H22.2355L8.18605 9.12501V13.1875C8.18605 13.5139 8.06844 13.827 7.8591 14.0578C7.64975 14.2886 7.36582 14.4183 7.06977 14.4183C6.77371 14.4183 6.48978 14.2886 6.28044 14.0578C6.0711 13.827 5.95349 13.5139 5.95349 13.1875V6.15385C5.95357 5.82745 6.0712 5.51445 6.28053 5.28366C6.48985 5.05286 6.77374 4.92316 7.06977 4.92308H13.4491C13.7452 4.92308 14.0291 5.05275 14.2385 5.28356C14.4478 5.51437 14.5654 5.82743 14.5654 6.15385C14.5654 6.48027 14.4478 6.79332 14.2385 7.02413C14.0291 7.25495 13.7452 7.38462 13.4491 7.38462H9.76454L23.814 22.875V18.8125C23.814 18.4861 23.9316 18.173 24.1409 17.9422C24.3502 17.7114 24.6342 17.5817 24.9302 17.5817C25.2263 17.5817 25.5102 17.7114 25.7196 17.9422C25.9289 18.173 26.0465 18.4861 26.0465 18.8125V25.8462Z" fill="#6EC363"/>
</svg>
