<svg width="32" height="32" viewBox="0 0 32 32" fill="none" xmlns="http://www.w3.org/2000/svg">
<path d="M31.306 14.4499L25.3595 20.5704L26.7629 29.1485C26.9591 30.0715 26.5845 31.0227 25.8085 31.5676C25.0324 32.1111 24.0052 32.1451 23.195 31.6533L15.9404 27.6951L8.80464 31.6533C7.99592 32.1126 6.99246 32.0624 6.23576 31.5233C5.45972 31.002 5.06431 30.0774 5.22487 29.1603L6.62824 20.5822L0.681745 14.4617C0.0514353 13.8089 -0.162677 12.8608 0.127246 12.0027C0.417138 11.1446 1.16196 10.5169 2.06133 10.3737L10.2319 9.13309L13.7998 1.46509C14.167 0.578928 15.0352 0 16 0C16.9648 0 17.833 0.578928 18.2002 1.46509L21.7681 9.13309L29.9387 10.3737C30.8381 10.5169 31.5829 11.1446 31.8728 12.0027C32.1627 12.8608 31.9486 13.8089 31.3183 14.4617L31.306 14.4499Z" fill="#FA961D"/>
</svg>
