<svg width="35" height="35" viewBox="0 0 35 35" fill="none" xmlns="http://www.w3.org/2000/svg">
<path d="M30.1049 28.5745C36.6317 22.0485 36.6317 11.4265 30.1049 4.89448C23.5781 -1.63149 12.9548 -1.63149 6.42188 4.89448C1.00513 10.3105 -0.0455283 18.6031 3.80675 25.1788L0 35L9.80059 31.1779C16.3852 35.0456 24.6784 34.0009 30.1053 28.575L30.1049 28.5745ZM11.2575 9.40617L11.8919 8.77179C12.3836 8.28015 13.1767 8.28015 13.6684 8.77179L15.998 11.1011C16.4897 11.5928 16.4897 12.3857 15.998 12.8774L15.5876 13.2877C14.9234 13.9519 14.7866 14.9887 15.2724 15.7955C16.0278 17.0583 17.3542 18.8564 19.2318 19.9209C20.0328 20.3769 21.0439 20.2302 21.6983 19.576L22.1999 19.0744C22.6916 18.5828 23.4846 18.5828 23.9764 19.0744L26.306 21.4038C26.7977 21.8954 26.7977 22.6884 26.306 23.18L25.6715 23.8144C24.4284 25.0574 22.6261 25.5748 20.925 25.1486C18.9244 24.647 16.2498 23.6261 14.0114 21.5663L13.3373 20.8705C11.4042 18.6839 10.4247 16.1206 9.93703 14.1816C9.50282 12.4708 10.0103 10.6591 11.2575 9.40617Z" fill="#6EC363"/>
</svg>
