<svg width="22" height="35" viewBox="0 0 22 35" fill="none" xmlns="http://www.w3.org/2000/svg">
<path d="M16.8648 8.39529H20.02C20.4545 8.39529 20.8088 8.03163 20.8088 7.58576V1.10957C20.8088 0.663687 20.4545 0.300049 20.02 0.300049H15.2872C10.5036 0.300049 6.61045 4.29549 6.61045 9.20481V13.3172H1.08885C0.654378 13.3172 0.300049 13.6808 0.300049 14.1267V20.5381C0.300049 20.984 0.654394 21.3477 1.08885 21.3477H6.06184V33.4905C6.06184 33.9364 6.41618 34.3 6.85064 34.3H13.4367C13.8712 34.3 14.2255 33.9364 14.2255 33.4905V21.3477H18.3746C18.7336 21.3477 19.0494 21.101 19.1403 20.7405L20.7857 14.2643C20.8489 14.0208 20.798 13.7631 20.647 13.5639C20.4976 13.3663 20.268 13.2477 20.0246 13.2477H14.503V10.8191C14.503 9.47991 15.5645 8.39053 16.8694 8.39053L16.8648 8.39529ZM13.7096 14.8715H18.9986L17.7645 19.7286H13.434C12.9995 19.7286 12.6452 20.0923 12.6452 20.5381V32.681H7.63672V20.5381C7.63672 20.0923 7.28237 19.7286 6.84792 19.7286H1.87493V14.9362H7.39653C7.831 14.9362 8.18533 14.5726 8.18533 14.1267V9.20481C8.18533 5.1888 11.3683 1.9191 15.2845 1.9191H19.2285V6.77624H16.8621C14.6883 6.77624 12.9181 8.59293 12.9181 10.8239V14.062C12.9181 14.5078 13.2725 14.8715 13.7069 14.8715H13.7096Z" fill="black" stroke="black" stroke-width="0.6"/>
</svg>
