<svg width="31" height="22" viewBox="0 0 31 22" fill="none" xmlns="http://www.w3.org/2000/svg">
<path d="M1.12181 0C1.11697 0 1.11212 0 1.10631 0C0.495031 0 0 0.447568 0 1.00024C0 1.55291 0.495031 2.00048 1.10631 2.00048C1.11212 2.00048 1.11697 2.00048 1.12278 2.00048H29.8782C29.883 2.00048 29.8879 2.00048 29.8937 2.00048C30.505 2.00048 31 1.55291 31 1.00024C31 0.447568 30.505 0 29.8937 0C29.8879 0 29.883 0 29.8772 0H1.12181ZM1.12181 9.99976C1.11697 9.99976 1.11212 9.99976 1.10631 9.99976C0.495031 9.99976 0 10.4473 0 11C0 11.5527 0.495031 12.0002 1.10631 12.0002C1.11212 12.0002 1.11697 12.0002 1.12278 12.0002H29.8782C29.883 12.0002 29.8879 12.0002 29.8937 12.0002C30.505 12.0002 31 11.5527 31 11C31 10.4473 30.505 9.99976 29.8937 9.99976C29.8879 9.99976 29.883 9.99976 29.8772 9.99976H1.12181ZM1.12181 19.9995C1.11697 19.9995 1.11212 19.9995 1.10631 19.9995C0.495031 19.9995 0 20.4471 0 20.9998C0 21.5524 0.495031 22 1.10631 22C1.11212 22 1.11697 22 1.12278 22H29.8782C29.883 22 29.8879 22 29.8937 22C30.505 22 31 21.5524 31 20.9998C31 20.4471 30.505 19.9995 29.8937 19.9995C29.8879 19.9995 29.883 19.9995 29.8772 19.9995H1.12181Z" fill="black"/>
</svg>
