<svg width="34" height="34" viewBox="0 0 34 34" fill="none" xmlns="http://www.w3.org/2000/svg">
<path d="M16.9756 7.03523C11.2929 7.03523 6.66944 11.5059 6.66944 17.0007C6.66944 22.4956 11.2929 26.9663 16.9756 26.9663C22.6583 26.9663 27.2818 22.4956 27.2818 17.0007C27.2818 11.5059 22.6583 7.03523 16.9756 7.03523ZM16.9756 24.6211C12.6291 24.6211 9.0948 21.2023 9.0948 17.0007C9.0948 12.7979 12.6305 9.38043 16.9756 9.38043C21.3207 9.38043 24.8564 12.7992 24.8564 17.0007C24.8564 21.2023 21.3207 24.6211 16.9756 24.6211ZM27.2818 0H6.66944C2.99233 0 0.00150472 2.89215 0.00150472 6.44753L0 27.5525C0 31.108 2.99102 34 6.66793 34H27.2803C30.9574 34 33.9482 31.1078 33.9482 27.5525L33.9512 6.44902C33.9512 2.89346 30.9587 0 27.2818 0ZM31.5263 27.5525C31.5263 29.8147 29.6215 31.6567 27.2818 31.6567H6.66944C4.32988 31.6567 2.42495 29.8149 2.42495 27.5525V6.44902C2.42495 4.1868 4.32819 2.34483 6.66944 2.34483H27.2818C29.6213 2.34483 31.5263 4.18516 31.5263 6.44902V27.5525ZM28.5698 5.20659C28.9084 5.53538 29.104 5.98639 29.104 6.44898C29.104 6.91162 28.9099 7.36259 28.5698 7.69138C28.2298 8.02016 27.7634 8.20783 27.285 8.20783C27.1631 8.20783 27.0427 8.19619 26.9269 8.17291C26.8111 8.14963 26.6967 8.11472 26.5869 8.07253C26.4785 8.02598 26.3687 7.97361 26.2724 7.90814C26.1746 7.84412 26.0783 7.77284 26.0001 7.69137C25.6601 7.36258 25.466 6.91157 25.466 6.44898C25.466 6.33113 25.478 6.22057 25.5021 6.10273C25.5202 5.99071 25.5563 5.88014 25.6044 5.77394C25.6465 5.6692 25.7022 5.56882 25.7684 5.46843C25.8346 5.37533 25.9128 5.28076 25.9986 5.20511C26.6711 4.55045 27.8898 4.55048 28.5698 5.20659Z" fill="black"/>
</svg>
