<?xml version="1.0" encoding="UTF-8"?>
<svg id="Layer_1" xmlns="http://www.w3.org/2000/svg" version="1.1" viewBox="0 0 96 98.88">
  <!-- Generator: Adobe Illustrator 30.0.0, SVG Export Plug-In . SVG Version: 2.1.1 Build 123)  -->
  <defs>
    <style>
      .st0 {
        stroke: #000;
        stroke-miterlimit: 10;
        stroke-width: 2px;
      }
    </style>
  </defs>
  <path class="st0" d="M80.68,17.36h0s-.03-.06-.05-.09c0-.01-.01-.02-.02-.03-.01-.02-.03-.05-.04-.07,0-.01-.02-.02-.03-.04s-.03-.04-.04-.05c-.01-.01-.02-.02-.03-.04s-.03-.03-.04-.05h-.01l-14.38-13.66h-.01c-.05-.05-.1-.09-.16-.12h-.02c-.06-.04-.12-.07-.18-.09h-.01c-.06-.03-.13-.05-.2-.06h-.01c-.07,0-.14-.02-.21-.02H19.12c-2.15,0-3.89,1.75-3.89,3.89v82.22c0,2.15,1.75,3.89,3.89,3.89h57.76c2.15,0,3.89-1.75,3.89-3.89V17.82c0-.16-.03-.32-.09-.46ZM66.39,6.89l10.29,9.76h-9.49c-.44,0-.8-.36-.8-.8V6.89h0ZM76.88,90.66H19.12c-.86,0-1.55-.7-1.55-1.55V6.89c0-.86.7-1.55,1.55-1.55h44.93v10.51c0,1.73,1.41,3.13,3.13,3.13h11.25v70.12c0,.86-.7,1.55-1.55,1.55h0ZM66.72,25.32c0,.65-.52,1.17-1.17,1.17H30.45c-.65,0-1.17-.52-1.17-1.17s.52-1.17,1.17-1.17h35.11c.64,0,1.17.52,1.17,1.17h0ZM66.72,36.66c0,.65-.52,1.17-1.17,1.17H30.45c-.65,0-1.17-.52-1.17-1.17s.52-1.17,1.17-1.17h35.11c.64,0,1.17.52,1.17,1.17h0ZM66.72,48c0,.65-.52,1.17-1.17,1.17H30.45c-.65,0-1.17-.52-1.17-1.17s.52-1.17,1.17-1.17h35.11c.64,0,1.17.52,1.17,1.17h0ZM66.72,59.34c0,.65-.52,1.17-1.17,1.17H30.45c-.65,0-1.17-.52-1.17-1.17s.52-1.17,1.17-1.17h35.11c.64,0,1.17.52,1.17,1.17h0ZM66.72,70.68c0,.64-.52,1.17-1.17,1.17H30.45c-.65,0-1.17-.52-1.17-1.17s.52-1.17,1.17-1.17h35.11c.64,0,1.17.52,1.17,1.17h0Z"/>
</svg>