<svg width="32" height="25" viewBox="0 0 32 25" fill="none" xmlns="http://www.w3.org/2000/svg">
<path d="M12.5742 11.725C13.4858 12.6367 14.7107 13.1439 16.0001 13.1439C17.2896 13.1439 18.5144 12.6366 19.426 11.725C20.3377 10.8134 20.845 9.58852 20.845 8.29919C20.845 7.00981 20.3377 5.78494 19.426 4.87334C18.5144 3.96169 17.2896 3.45437 16.0001 3.45435C14.7107 3.45435 13.4858 3.96169 12.5742 4.87334C11.6625 5.78496 11.1553 7.00981 11.1553 8.29919C11.1553 9.5885 11.6626 10.8134 12.5742 11.725Z" fill="#EC172A"/>
<path d="M7.9063 9.68954C8.3344 9.68954 8.76145 9.63336 9.17464 9.52138C9.44402 9.44853 9.7067 9.35201 9.95927 9.23363C9.91185 8.92448 9.88822 8.612 9.88822 8.29922C9.88822 6.6728 10.5285 5.12755 11.6783 3.97777C11.9306 3.72541 12.2049 3.49528 12.4971 3.29058C12.1914 2.38626 11.6258 1.59409 10.8698 1.0099C10.0199 0.353175 8.98026 0 7.90628 0C6.61691 0 5.39205 0.507284 4.48046 1.41893C3.56877 2.33057 3.06152 3.55538 3.06152 4.84482C3.06152 6.13422 3.56877 7.35902 4.48046 8.27059C5.39212 9.18227 6.61698 9.68954 7.9063 9.68954Z" fill="#EC172A"/>
<path d="M22.1118 8.2992C22.1118 8.612 22.0882 8.92446 22.0408 9.23361C22.2935 9.35194 22.556 9.44849 22.8254 9.52136C23.2385 9.63334 23.6656 9.68952 24.0938 9.68952C25.3832 9.68952 26.608 9.18223 27.5196 8.27059C28.4313 7.35903 28.9385 6.13418 28.9385 4.84478C28.9385 3.55534 28.4313 2.33057 27.5196 1.41893C26.6079 0.507284 25.3832 0 24.0938 0C23.0198 0 21.9802 0.353239 21.1303 1.0099C20.3742 1.59409 19.8086 2.38626 19.5029 3.29058C19.7951 3.4953 20.0694 3.72543 20.3217 3.97777C21.4716 5.12753 22.1118 6.67284 22.1118 8.2992Z" fill="#EC172A"/>
<path d="M9.63972 14.708C10.6044 14.1391 11.6916 13.7463 12.7844 13.4972C12.3836 13.2487 12.0121 12.9543 11.6786 12.6206C11.268 12.2101 10.9168 11.7422 10.6376 11.2332C10.2432 11.1504 9.84449 11.0867 9.44405 11.0415C8.93393 10.9839 8.41997 10.9563 7.9065 10.9563C5.98401 10.9563 3.8619 11.3563 2.18953 12.3425C1.11566 12.9758 0 14.0156 0 15.3591V18.8624C0 19.5521 1.4389 20.1251 1.94977 20.3099C2.66688 20.5692 3.42554 20.749 4.17595 20.8799C5.05048 21.0325 5.93972 21.1212 6.82669 21.1609V18.8136C6.82671 16.9873 8.15092 15.586 9.63972 14.708Z" fill="#EC172A"/>
<path d="M21.7169 15.797C20.0445 14.8107 17.9222 14.4108 15.9998 14.4108C14.0774 14.4108 11.9551 14.8107 10.2828 15.797C9.20897 16.4303 8.09326 17.4701 8.09326 18.8136V22.317C8.09326 23.0378 9.63447 23.6249 10.1668 23.809C11.0055 24.0991 11.8991 24.2874 12.7764 24.4147C13.8412 24.5692 14.9242 24.6374 15.9998 24.6374C17.0754 24.6374 18.1584 24.5692 19.2232 24.4147C20.1004 24.2874 20.9941 24.0991 21.8328 23.809C22.3651 23.6249 23.9063 23.0378 23.9063 22.317V18.8136C23.9064 17.4701 22.7907 16.4303 21.7169 15.797Z" fill="#EC172A"/>
<path d="M29.8102 12.3426C28.1379 11.3564 26.0156 10.9564 24.0932 10.9564C23.5798 10.9564 23.066 10.9839 22.5557 11.0416C22.1552 11.0868 21.7565 11.1504 21.3621 11.2332C21.083 11.7423 20.7317 12.2102 20.3212 12.6207C19.9875 12.9543 19.616 13.2488 19.2153 13.4973C20.3081 13.7464 21.3953 14.1392 22.3599 14.708C23.8488 15.586 25.173 16.9873 25.173 18.8136V21.1609C26.0599 21.1213 26.9492 21.0325 27.8237 20.88C28.5742 20.7491 29.3328 20.5693 30.0499 20.31C30.5609 20.1252 31.9998 19.5521 31.9998 18.8625V15.3592C31.9998 14.0156 30.8841 12.9759 29.8102 12.3426Z" fill="#EC172A"/>
</svg>
