<svg width="35" height="36" viewBox="0 0 35 36" fill="none" xmlns="http://www.w3.org/2000/svg">
<path d="M33.8235 26.7581L27.1258 22.6282C26.0985 21.9845 24.7664 22.1739 23.9294 23.0825C23.2827 23.7646 22.6732 24.4838 22.0265 25.166C21.2653 25.9991 19.9719 26.1885 19.0204 25.5833C17.4222 24.5977 15.5192 23.1964 13.6532 21.2655C11.7116 19.2575 10.3795 17.2493 9.42784 15.5833C8.93276 14.6747 9.12307 13.5383 9.88425 12.8176L12.2065 10.7341C13.0435 9.9765 13.2338 8.76459 12.7387 7.77906L9.27469 1.37782C8.55217 0.0519671 6.9153 -0.402309 5.62037 0.392296H5.58171C0.940354 3.23342 -1.64807 6.98294 1.16909 14.0683C2.76729 18.0845 5.54594 22.6671 9.80822 26.9481C13.8802 31.0397 17.0395 33.0478 20.694 34.7138C26.0612 37.1761 30.1332 35.8887 32.7216 32.6688C33.2925 31.9112 33.902 31.192 34.4729 30.4344C35.3843 29.258 35.0795 27.5533 33.8233 26.7587L33.8235 26.7581Z" fill="#EC172A"/>
</svg>
