<svg width="29" height="35" viewBox="0 0 29 35" fill="none" xmlns="http://www.w3.org/2000/svg">
<path d="M27.6546 4.22729C27.4562 4.09971 27.2577 4.09971 27.0593 4.1635C25.4055 4.86519 23.6855 4.35487 22.6932 3.07908C22.2302 2.50497 21.9656 1.73949 21.9656 1.0378C21.9656 0.846431 21.8994 0.718852 21.7671 0.591272C21.6348 0.463692 21.5025 0.399902 21.304 0.399902H14.5565C14.1596 0.399902 13.895 0.655062 13.895 1.0378V23.6832C13.895 23.747 13.895 23.747 13.895 23.8108C13.7627 24.959 12.8366 25.7883 11.6459 25.7883C10.389 25.7883 9.33054 24.7676 9.33054 23.5556C9.33054 22.4074 10.1905 21.5143 11.3812 21.3868C11.712 21.323 11.9766 21.0678 11.9766 20.7489V13.3492C11.9766 12.9665 11.712 12.7113 11.3151 12.7113C11.3151 12.7113 11.2489 12.7113 11.1828 12.7113C5.09681 12.9665 0.400024 17.687 0.400024 23.5556C0.400024 29.5519 5.42757 34.3999 11.6459 34.3999C17.4672 34.3999 22.3625 30.0622 22.8255 24.5125C22.8917 24.4487 22.8917 24.3211 22.8917 24.2573V11.9459C24.347 12.2648 25.8685 12.3924 27.4562 12.1372C27.7869 12.0734 27.9854 11.8183 27.9854 11.4993V4.73761C27.9854 4.54624 27.8531 4.35487 27.6546 4.22729ZM26.6624 10.989C25.1409 11.1166 23.7517 10.989 22.3625 10.5425C22.164 10.4787 21.9656 10.5425 21.7671 10.6063C21.5687 10.7339 21.5025 10.9252 21.5025 11.1166V24.0022C21.5025 24.0659 21.5025 24.1297 21.4363 24.1935C21.1056 29.1691 16.7396 33.1241 11.5797 33.1241C6.08909 33.1241 1.65691 28.8502 1.65691 23.5556C1.65691 18.58 5.49373 14.4975 10.5874 14.0509V20.2386C9.06593 20.6851 7.94135 22.0247 7.94135 23.5556C7.94135 25.4693 9.59515 27.0641 11.5797 27.0641C13.3658 27.0641 14.8873 25.7883 15.1519 24.1297C15.2181 24.0659 15.2181 23.9384 15.2181 23.8746V1.6757H20.7087C20.841 2.50497 21.1717 3.20666 21.6348 3.84456C22.7594 5.31172 24.7439 6.0772 26.6624 5.63067V10.989Z" fill="black" stroke="black" stroke-width="0.8"/>
</svg>
