<?xml version="1.0" encoding="UTF-8"?>
<svg id="Layer_1" xmlns="http://www.w3.org/2000/svg" version="1.1" viewBox="0 0 110 106.66">
  <!-- Generator: Adobe Illustrator 29.8.2, SVG Export Plug-In . SVG Version: 2.1.1 Build 3)  -->
  <path d="M97.84,91.98l-23.15-23.14c8.04-9.57,10.54-22.62,6.61-34.48-3.93-11.86-13.72-20.84-25.88-23.72-12.16-2.88-24.94.74-33.78,9.57-8.83,8.84-12.46,21.62-9.57,33.78s11.86,21.95,23.72,25.88c11.86,3.93,24.91,1.42,34.48-6.61l23.15,23.15h0c1.22,1.22,3.2,1.22,4.42,0,1.22-1.22,1.22-3.2,0-4.42h0ZM17.5,45.76c0-7.88,3.13-15.43,8.7-20.99,5.57-5.57,13.12-8.7,20.99-8.7s15.43,3.13,20.99,8.7c5.57,5.57,8.7,13.12,8.7,20.99s-3.13,15.43-8.7,20.99c-5.57,5.57-13.12,8.7-20.99,8.7-7.87,0-15.42-3.14-20.98-8.71-5.57-5.56-8.7-13.11-8.71-20.98h0Z"/>
</svg>